<?xml version="1.0" encoding="iso-8859-1"?>
<!-- Uploaded to: SVG Repo, www.svgrepo.com, Generator: SVG Repo Mixer Tools -->
<svg fill="#000000" height="800px" width="800px" version="1.1" id="Layer_1" xmlns="http://www.w3.org/2000/svg" xmlns:xlink="http://www.w3.org/1999/xlink" 
	 viewBox="0 0 513.13 513.13" xml:space="preserve">
<g>
	<g>
		<circle cx="59.733" cy="236.846" r="8.533"/>
	</g>
</g>
<g>
	<g>
		<circle cx="51.2" cy="270.98" r="8.533"/>
	</g>
</g>
<g>
	<g>
		<path d="M497.493,259.033c-12.8-18.773-49.493-27.307-110.08-25.6L206.507,148.1c-4.267-1.707-8.533,0-11.093,3.413
			c-1.707,4.267-58.027,89.6-160.427,29.867c-2.56-0.853-5.12-0.853-7.68,0s-4.267,3.413-5.12,5.973
			C15.36,224.9,3.413,287.193,0.853,294.02c-0.853,2.56-0.853,5.12,0,7.68c1.707,1.707,4.267,3.413,6.827,3.413
			c24.747,1.707,154.453,11.093,274.773,11.093c101.547,0,197.12-6.827,216.747-30.72c0.853-0.853,1.707-1.707,1.707-2.56
			C501.76,281.22,505.173,270.98,497.493,259.033z M19.627,288.9c4.267-20.48,12.8-64.853,17.067-86.187
			c82.773,41.813,144.213-0.853,168.96-34.987L381.44,250.5c1.707,0.853,2.56,0.853,4.267,0.853
			c74.24-2.56,93.013,11.947,97.28,17.92c2.56,2.56,2.56,5.12,2.56,6.827C452.267,307.673,187.733,300.846,19.627,288.9z"/>
	</g>
</g>
<g>
	<g>
		<path d="M510.293,287.193l-8.533-19.627c-1.707-3.413-5.12-5.12-8.533-5.12c-5.12,0-8.533,3.413-8.533,8.533
			c0,1.707,0,3.413,0.853,4.267l7.68,17.92c3.413,9.387,0.853,20.48-6.827,25.6c-15.36,10.24-53.76,29.013-139.093,29.013
			c-117.76,0-290.133,0-330.24,0v-51.2c0-5.12-3.413-8.533-8.533-8.533S0,291.46,0,296.58v59.733c0,2.56,0.853,4.267,2.56,5.973
			s3.413,2.56,5.973,2.56c0,0,204.8,0,340.48,0.853c85.333,0,128-17.92,148.48-32.427
			C511.147,323.033,517.12,304.26,510.293,287.193z"/>
	</g>
</g>
<g>
	<g>
		<path d="M386.56,234.286c-4.267-0.853-8.533,2.56-9.387,6.827l-10.24,62.293c0,0,0,0.853,0,1.707c0,5.12,3.413,8.533,8.533,8.533
			c4.267,0,7.68-3.413,8.533-7.68l9.387-62.293C394.24,239.406,390.827,235.14,386.56,234.286z"/>
	</g>
</g>
<g>
	<g>
		<path d="M243.2,152.366c-4.267-2.56-9.387-0.853-11.093,3.413l-25.6,42.667c-2.56,4.267-1.707,9.387,2.56,11.947
			c0.853,0.853,2.56,0.853,4.267,0.853c2.56,0,5.973-1.707,7.68-4.267l25.6-42.667C248.32,160.046,247.467,154.926,243.2,152.366z"
			/>
	</g>
</g>
<g>
	<g>
		<path d="M277.333,169.433c-4.267-2.56-9.387-0.853-11.093,3.413l-25.6,42.667c-2.56,4.267-1.707,9.387,2.56,11.947
			c0.853,0.853,2.56,0.853,4.267,0.853c2.56,0,5.973-1.707,7.68-4.267l25.6-42.667C282.453,177.113,281.6,171.993,277.333,169.433z"
			/>
	</g>
</g>
<g>
	<g>
		<path d="M311.467,186.5c-4.267-2.56-9.387-0.853-11.093,3.413l-25.6,42.667c-2.56,4.267-1.707,9.387,2.56,11.947
			c0.853,0.853,2.56,0.853,4.267,0.853c2.56,0,5.973-1.707,7.68-4.267l25.6-42.667C316.587,194.18,315.733,189.06,311.467,186.5z"/>
	</g>
</g>
<g>
	<g>
		<path d="M345.6,203.566c-4.267-2.56-9.387-0.853-11.093,3.413l-25.6,42.667c-2.56,4.267-1.707,9.387,2.56,11.947
			c0.853,0.853,2.56,0.853,4.267,0.853c2.56,0,5.973-1.707,7.68-4.267l25.6-42.667C350.72,211.246,349.867,206.126,345.6,203.566z"
			/>
	</g>
</g>
<g>
	<g>
		<path d="M31.573,180.526c-6.827-0.853-14.507-5.973-14.507-15.36c0-5.12-3.413-8.533-8.533-8.533S0,160.046,0,165.166
			c0,16.213,11.947,29.013,28.16,32.427c0.853,0,0.853,0,1.707,0c4.267,0,7.68-3.413,8.533-6.827
			C39.253,185.646,35.84,181.38,31.573,180.526z"/>
	</g>
</g>
<g>
	<g>
		<path d="M365.227,224.046c-4.267-1.707-9.387,0-11.093,4.267l-6.827,15.36c-10.24,23.04-36.693,34.133-59.733,23.893
			l-154.453-66.56c-4.267-1.707-9.387,0-11.093,4.267s0,9.387,4.267,11.093l154.453,66.56c7.68,3.413,16.213,5.12,24.747,5.12
			c23.893,0,46.933-13.653,57.173-37.547l6.827-15.36C371.2,230.873,369.493,225.753,365.227,224.046z"/>
	</g>
</g>
</svg>